<?xml version="1.0" encoding="UTF-8"?>
<svg id="_레이어_1" data-name="레이어_1" xmlns="http://www.w3.org/2000/svg" viewBox="0 0 595.28 841.89">
  <defs>
    <style>
      .cls-1 {
        fill: #040000;
      }
    </style>
  </defs>
  <path class="cls-1" d="M332.49,448.06c0-11.49,2.65-21.78,7.94-30.86.28-.49.6-.95.89-1.42v-24.44h-13.84v114.82h13.84v-25.91c-.3-.48-.61-.94-.89-1.44-5.3-9.15-7.94-19.4-7.94-30.75Z"/>
  <path class="cls-1" d="M342.24,361.95c2.12-2.04,3.18-4.5,3.18-7.37,0-3.02-1.06-5.52-3.18-7.49-2.12-1.96-4.69-2.95-7.72-2.95s-5.6.99-7.71,2.95c-2.12,1.97-3.18,4.46-3.18,7.49s1.06,5.33,3.18,7.37c2.12,2.04,4.69,3.06,7.71,3.06s5.59-1.02,7.72-3.06Z"/>
  <path class="cls-1" d="M299.33,388.84h-11.35c-9.53,0-17.78,2.35-24.73,7.03-6.96,4.69-12.25,11.42-15.88,20.19v-24.73h-13.84v114.82h13.84v-60.36c0-14.37,3.71-25.26,11.12-32.67,7.41-7.41,16.64-11.12,27.68-11.12h11.57c5.14,0,9.42.45,12.82,1.36,3.4.91,6.54,2.35,9.42,4.31v-14.98c-2.42-1.21-5.26-2.16-8.51-2.84-3.25-.68-7.3-1.02-12.14-1.02Z"/>
  <rect class="cls-1" x="178.11" y="364.43" width="14.75" height="141.72"/>
  <polygon class="cls-1" points="192.86 360.29 268.2 360.29 268.2 348.12 103.01 348.12 103.01 360.29 178.11 360.29 178.11 360.31 192.86 360.31 192.86 360.29"/>
  <path class="cls-1" d="M484.27,505.8h-13.78v-27.34c-4.67,9.19-11.41,16.53-20.22,22.03-8.81,5.5-18.95,8.25-30.39,8.25h-20.34c-11.6,0-22-2.64-31.18-7.91-9.19-5.27-16.42-12.46-21.69-21.58-5.27-9.11-7.91-19.32-7.91-30.62s2.63-21.69,7.91-30.73c5.27-9.04,12.5-16.23,21.69-21.58,9.19-5.35,19.58-8.02,31.18-8.02h20.34c11.45,0,21.58,2.79,30.39,8.36,8.81,5.58,15.55,12.88,20.22,21.92v-85.42h13.78v172.64ZM464.27,424c-4.15-7.23-9.87-12.95-17.17-17.17-7.31-4.22-15.7-6.33-25.19-6.33h-20.56c-9.34,0-17.7,2.11-25.08,6.33-7.38,4.22-13.14,9.94-17.29,17.17-4.15,7.23-6.21,15.44-6.21,24.63s2.07,17.4,6.21,24.63c4.14,7.23,9.9,12.96,17.29,17.17,7.38,4.22,15.74,6.33,25.08,6.33h20.56c9.49,0,17.89-2.11,25.19-6.33,7.31-4.22,13.03-9.94,17.17-17.17,4.14-7.23,6.21-15.44,6.21-24.63s-2.07-17.4-6.21-24.63Z"/>
</svg>