<svg width="75" height="30" viewBox="0 0 75 30" fill="none" xmlns="http://www.w3.org/2000/svg">
<path d="M17.4 22.256V23H11.16V22.256H13.08L11.448 17.528H5.664L4.752 19.688C4.464 20.424 4.32 20.968 4.32 21.32C4.32 21.656 4.368 21.896 4.464 22.04C4.56 22.184 5.064 22.256 5.976 22.256V23H0.744V22.256C1.576 22.272 2.176 22.168 2.544 21.944C2.928 21.704 3.344 20.952 3.792 19.688L9 6.008H9.96L15.624 22.256H17.4ZM6 16.616H11.112L8.736 9.584L6 16.616ZM32.0651 22.352V23H28.1051L28.2011 20.888C27.9131 21.48 27.4331 22 26.7611 22.448C25.9771 23.024 25.0731 23.312 24.0491 23.312C22.4491 23.312 21.2251 22.768 20.3771 21.68C19.5291 20.576 19.1051 19.16 19.1051 17.432C19.1051 15.688 19.6971 14.248 20.8811 13.112C22.0651 11.976 23.5211 11.44 25.2491 11.504C25.9211 11.584 26.5451 11.744 27.1211 11.984C27.6331 12.256 27.9691 12.536 28.1291 12.824V7.64C28.1131 7.08 27.8251 6.8 27.2651 6.8H26.1371V6.128H30.0971V21.776C30.1291 22.16 30.3051 22.352 30.6251 22.352H32.0651ZM28.1291 17.456V14.408C27.9531 13.864 27.5451 13.392 26.9051 12.992C26.2651 12.592 25.5211 12.392 24.6731 12.392C23.8411 12.392 23.1051 12.728 22.4651 13.4C21.7131 14.216 21.2811 15.424 21.1691 17.024C21.0731 18.256 21.3691 19.352 22.0571 20.312C22.7931 21.384 23.7371 21.92 24.8891 21.92C26.0411 21.92 26.8971 21.432 27.4571 20.456C27.9051 19.672 28.1291 18.672 28.1291 17.456ZM52.9084 22.352V23H47.0764V22.352H48.4924C48.7964 22.352 48.9964 22.168 49.0924 21.8V16.136C49.0924 15.288 48.9004 14.592 48.5164 14.048C48.1324 13.488 47.5964 13.208 46.9084 13.208C46.2204 13.208 45.5644 13.472 44.9404 14C44.3164 14.496 44.0044 14.96 44.0044 15.392L43.9804 21.8C44.0604 22.168 44.2444 22.352 44.5324 22.352H45.9244V23H40.1164V22.352H41.4844C41.7884 22.352 41.9804 22.168 42.0604 21.8V16.136C42.0604 15.32 41.8764 14.64 41.5084 14.096C41.1404 13.504 40.5964 13.208 39.8764 13.208C39.1724 13.208 38.5164 13.456 37.9084 13.952C37.3164 14.432 37.0204 14.912 37.0204 15.392V21.8C37.0684 22.168 37.2444 22.352 37.5484 22.352H38.9404V23H33.1084V22.352H34.5004C34.8044 22.352 34.9804 22.168 35.0284 21.8V13.52C35.0124 12.976 34.7324 12.704 34.1884 12.704H33.0844V12.032H37.0204V13.856C37.3404 13.28 37.7644 12.824 38.2924 12.488C38.9964 12.008 39.7804 11.768 40.6444 11.768C42.1644 11.768 43.2364 12.496 43.8604 13.952C44.8044 12.496 46.0764 11.768 47.6764 11.768C48.6524 11.768 49.4524 12.112 50.0764 12.8C50.7164 13.472 51.0364 14.384 51.0364 15.536L51.0124 21.8C51.0444 22.168 51.2124 22.352 51.5164 22.352H52.9084ZM57.081 7.016C57.433 7.016 57.729 7.136 57.969 7.376C58.225 7.616 58.353 7.92 58.353 8.288C58.369 8.64 58.241 8.944 57.969 9.2C57.697 9.456 57.393 9.584 57.057 9.584C56.721 9.584 56.417 9.456 56.145 9.2C55.889 8.944 55.761 8.656 55.761 8.336C55.761 8 55.889 7.696 56.145 7.424C56.417 7.152 56.729 7.016 57.081 7.016ZM58.161 12.056V21.8C58.161 22.168 58.337 22.352 58.689 22.352H60.081V23H54.273V22.352H55.665C56.017 22.352 56.193 22.168 56.193 21.8V13.256C56.145 12.888 55.969 12.704 55.665 12.704H54.273V12.056H58.161ZM74.1733 22.352V23H68.3173V22.352H69.7333C70.0373 22.352 70.2133 22.168 70.2613 21.8V16.112C70.2613 15.184 70.0213 14.464 69.5413 13.952C69.0613 13.424 68.4453 13.16 67.6933 13.16C66.9413 13.16 66.2453 13.408 65.6053 13.904C64.9973 14.416 64.6933 14.896 64.6933 15.344V21.8C64.7413 22.168 64.9253 22.352 65.2453 22.352H66.6373V23H60.7813V22.352H62.1733C62.4933 22.352 62.6773 22.168 62.7253 21.8V13.496C62.7093 12.952 62.4373 12.68 61.9093 12.68H60.7813V12.032H64.7173V12.68C64.7013 12.872 64.6933 13.096 64.6933 13.352V13.832C64.8213 13.528 65.1573 13.144 65.7013 12.68C66.5173 12.04 67.4053 11.72 68.3653 11.72C70.9413 11.72 72.2293 13.088 72.2293 15.824V21.8C72.2773 22.168 72.4613 22.352 72.7813 22.352H74.1733Z" fill="black"/>
</svg>
