<svg width="284" height="130" viewBox="0 0 284 130" fill="none" xmlns="http://www.w3.org/2000/svg">
<path d="M193.308 92.66V97H153.268V92.66H166.428V4.87999H153.268V0.539999H193.308V4.87999H180.288V92.66H193.308Z" fill="black"/>
<path d="M283.74 81.96C283.74 95.0267 279.4 106.273 270.72 115.7C262.133 125.127 252.193 129.653 240.9 129.28C223.913 128.72 208 128.627 193.16 129V124.66H206.32V36.88H193.16V32.54C201.467 33.0067 208.84 33.1933 215.28 33.1C221.72 33.0067 230.4 33.0067 241.32 33.1C254.48 33.2867 264.84 37.7667 272.4 46.54C279.96 55.22 283.74 67.0267 283.74 81.96ZM262.32 111.22C266.893 103.94 269.087 93.9067 268.9 81.12C268.807 68.24 266.987 58.3467 263.44 51.44C259.053 42.5733 251.68 37.72 241.32 36.88C232.92 36.4133 225.407 36.6 218.78 37.44V124.66C225.127 125.22 229.887 125.5 233.06 125.5C236.327 125.5 238.987 125.407 241.04 125.22C250.653 123.82 257.747 119.153 262.32 111.22Z" fill="black"/>
<path d="M89.88 0.539999L90.16 28.96H85.96C85.4 21.12 83.3 15.3333 79.66 11.6C76.02 7.77333 69.6267 5.62666 60.48 5.16L54.04 4.87999V92.66H67.2V97H28.28V92.66H41.3V4.87999L35 5.16C25.9467 5.53333 19.6 7.54 15.96 11.18C12.4133 14.7267 10.22 20.6533 9.38 28.96H5.32L5.6 0.539999H89.88Z" fill="black"/>
<path d="M133.66 121.44L106.92 83.22H98.38L98.66 124.66H111.68V129H72.76V124.66H85.78V36.88H72.76V32.54H115.18C126.473 32.54 135.06 34.78 140.94 39.26C146.82 43.74 149.76 49.7133 149.76 57.18C149.76 64.6467 147.147 70.7133 141.92 75.38C136.88 79.58 130.253 81.96 122.04 82.52L150.74 121.44C152.233 123.307 155.547 124.473 160.68 124.94V129.14C153.867 128.86 143.087 128.86 128.34 129.14L128.48 124.66H132.4C133.707 124.38 134.36 123.913 134.36 123.26C134.36 122.513 134.127 121.907 133.66 121.44ZM110.56 79.16C127.547 79.16 135.853 71.8333 135.48 57.18C135.107 43.6467 127.78 36.88 113.5 36.88H98.66L98.38 79.16H110.56Z" fill="black"/>
</svg>
